<mxfile host="app.diagrams.net" agent="Mozilla/5.0 (Windows NT 10.0; Win64; x64) AppleWebKit/537.36 (KHTML, like Gecko) Chrome/130.0.0.0 Safari/537.36 Edg/130.0.0.0" version="24.8.4">
  <diagram name="Page-1" id="GM5EACesnPN8emdA0iR4">
    <mxGraphModel dx="786" dy="511" grid="1" gridSize="10" guides="1" tooltips="1" connect="1" arrows="1" fold="1" page="1" pageScale="1" pageWidth="850" pageHeight="1100" math="0" shadow="0">
      <root>
        <mxCell id="0" />
        <mxCell id="1" parent="0" />
        <mxCell id="MbQyaKv3982uyy-kQxH1-10" style="edgeStyle=orthogonalEdgeStyle;rounded=0;orthogonalLoop=1;jettySize=auto;html=1;" edge="1" parent="1" source="MbQyaKv3982uyy-kQxH1-2">
          <mxGeometry relative="1" as="geometry">
            <mxPoint x="420" y="235" as="targetPoint" />
          </mxGeometry>
        </mxCell>
        <mxCell id="MbQyaKv3982uyy-kQxH1-2" value="&lt;span id=&quot;docs-internal-guid-671d8de6-7fff-cc68-dbba-e34adb06dd70&quot;&gt;&lt;span style=&quot;font-size: 14pt; font-family: Arial, sans-serif; color: rgb(255, 255, 255); background-color: transparent; font-variant-numeric: normal; font-variant-east-asian: normal; font-variant-alternates: normal; font-variant-position: normal; vertical-align: baseline; white-space-collapse: preserve;&quot;&gt;Tablist&lt;/span&gt;&lt;/span&gt;" style="text;html=1;align=center;verticalAlign=middle;whiteSpace=wrap;rounded=0;fillColor=#f0a30a;fontColor=#000000;strokeColor=#BD7000;" vertex="1" parent="1">
          <mxGeometry x="300" y="220" width="70" height="30" as="geometry" />
        </mxCell>
        <mxCell id="MbQyaKv3982uyy-kQxH1-3" value="&lt;span id=&quot;docs-internal-guid-0fc30308-7fff-5fbc-95e9-8e8a98bd874b&quot;&gt;&lt;span style=&quot;font-size: 14pt; font-family: Arial, sans-serif; color: rgb(255, 255, 255); background-color: transparent; font-variant-numeric: normal; font-variant-east-asian: normal; font-variant-alternates: normal; font-variant-position: normal; vertical-align: baseline; white-space-collapse: preserve;&quot;&gt;Tab &lt;/span&gt;&lt;/span&gt;" style="text;html=1;align=center;verticalAlign=middle;whiteSpace=wrap;rounded=0;fillColor=#f0a30a;fontColor=#000000;strokeColor=#BD7000;" vertex="1" parent="1">
          <mxGeometry x="600" y="240" width="80" height="40" as="geometry" />
        </mxCell>
        <mxCell id="MbQyaKv3982uyy-kQxH1-11" style="edgeStyle=orthogonalEdgeStyle;rounded=0;orthogonalLoop=1;jettySize=auto;html=1;entryX=0;entryY=0.5;entryDx=0;entryDy=0;" edge="1" parent="1" source="MbQyaKv3982uyy-kQxH1-4" target="MbQyaKv3982uyy-kQxH1-2">
          <mxGeometry relative="1" as="geometry" />
        </mxCell>
        <mxCell id="MbQyaKv3982uyy-kQxH1-4" value="Home" style="text;html=1;align=center;verticalAlign=middle;whiteSpace=wrap;rounded=0;fillColor=#f0a30a;fontColor=#000000;strokeColor=#BD7000;" vertex="1" parent="1">
          <mxGeometry x="160" y="220" width="60" height="30" as="geometry" />
        </mxCell>
        <mxCell id="MbQyaKv3982uyy-kQxH1-5" value="HTML" style="text;html=1;align=center;verticalAlign=middle;whiteSpace=wrap;rounded=0;" vertex="1" parent="1">
          <mxGeometry x="600" y="150" width="60" height="30" as="geometry" />
        </mxCell>
        <mxCell id="MbQyaKv3982uyy-kQxH1-8" style="edgeStyle=orthogonalEdgeStyle;rounded=0;orthogonalLoop=1;jettySize=auto;html=1;exitX=1;exitY=0;exitDx=0;exitDy=0;" edge="1" parent="1" source="MbQyaKv3982uyy-kQxH1-7" target="MbQyaKv3982uyy-kQxH1-5">
          <mxGeometry relative="1" as="geometry" />
        </mxCell>
        <mxCell id="MbQyaKv3982uyy-kQxH1-9" style="edgeStyle=orthogonalEdgeStyle;rounded=0;orthogonalLoop=1;jettySize=auto;html=1;" edge="1" parent="1" source="MbQyaKv3982uyy-kQxH1-7" target="MbQyaKv3982uyy-kQxH1-3">
          <mxGeometry relative="1" as="geometry" />
        </mxCell>
        <mxCell id="MbQyaKv3982uyy-kQxH1-7" value="&lt;br&gt;&lt;span id=&quot;docs-internal-guid-fbadfe3d-7fff-c45b-9cf4-4ad300c1e78a&quot;&gt;&lt;span style=&quot;font-size: 18pt; font-family: Arial, sans-serif; color: rgb(255, 255, 255); background-color: transparent; font-variant-numeric: normal; font-variant-east-asian: normal; font-variant-alternates: normal; font-variant-position: normal; vertical-align: baseline; white-space-collapse: preserve;&quot;&gt;content projection&lt;/span&gt;&lt;/span&gt;" style="text;html=1;align=center;verticalAlign=middle;whiteSpace=wrap;rounded=0;fillColor=#f0a30a;fontColor=#000000;strokeColor=#BD7000;" vertex="1" parent="1">
          <mxGeometry x="425" y="190" width="120" height="70" as="geometry" />
        </mxCell>
      </root>
    </mxGraphModel>
  </diagram>
</mxfile>
